Simulation
nRows=46
nColumns=15
endheader
time  TH_x TH_y TH_z SC_y  SC_z  SC_x  AC_y  AC_z  AC_x  GH_y  GH_z  GH_yy  EL_x  PS_y
2.6910411985018725  0.000000  0.000000  0.000000  -23.744062512825142  4.4257140370052435  -3.2411133833685692  56.62812377463309  9.085151617854143  5.3241842375642605  -7.528471713881066  3.1647846433169815  36.947738304014266  15.89079758140147  120.000000
2.7312059925093632  0.000000  0.000000  0.000000  -23.5694317705612  4.405858638181489  -3.1529396425358103  57.181226531476575  9.422066866337266  5.665593554142926  -3.3431632943221703  1.4221652965830975  35.05175362414904  16.63855652660101  120.000000
2.771370786516854  0.000000  0.000000  0.000000  -23.552171512738393  4.444385613471037  -3.0027431378659264  57.65220727984755  9.732248572466602  5.9604889325313435  128.89982075673794  0.28417145796034027  -95.10694914805912  17.301071467118728  120.000000
2.8115355805243447  0.000000  0.000000  0.000000  -23.653048730229123  4.528375006000271  -2.818553535468195  58.04068305856646  10.002132846992126  6.202900688058474  164.16792824981763  1.7388246737313744  -128.48915937623826  17.853375371935197  120.000000
2.851700374531835  0.000000  0.000000  0.000000  -23.835181593633347  4.645113323850598  -2.6174445089967007  58.35003789246026  10.226957552238565  6.392583848737927  167.89634884450385  3.1386951080660115  -130.51750059342947  18.28019301989617  120.000000
2.8918651685393257  0.000000  0.000000  0.000000  -24.067211626825202  4.783159909080263  -2.4068130065268916  58.587416366354944  10.410017034387337  6.533707869139887  170.0509712265487  4.4301115342400665  -131.14541550035892  18.577095965760883  120.000000
2.9320299625468165  0.000000  0.000000  0.000000  -24.32360577784622  4.932593813243718  -2.1883650680745763  58.761683898189034  10.5581153248884  6.633700019325607  171.79876073879774  5.607600780752075  -131.52934507754986  18.75010143148222  120.000000
2.972194756554307  0.000000  0.000000  0.000000  -24.58441189194213  5.084646789889004  -1.9620942495628368  58.88211831694729  10.677883904741122  6.700533907976486  173.357310486179  6.668387704250347  -131.87801290106424  18.813350828007128  120.000000
3.012359550561798  0.000000  0.000000  0.000000  -24.835005442747654  5.232679349526454  -1.7285248667414754  58.95724383457644  10.77423151418712  6.740718306967569  174.7969736300659  7.611923340035803  -132.25345524681904  18.78687662622482  120.000000
3.0525243445692882  0.000000  0.000000  0.000000  -25.06646255599087  5.3735265864163795  -1.4899074729925634  58.994967701400746  10.849779879223611  6.75807038832539  176.1450325733661  8.439994738894017  -132.67512799058616  18.69379461411193  120.000000
3.092689138576779  0.000000  0.000000  0.000000  -25.27372670043188  5.50599724342203  -1.2500740654785694  59.00206788279565  10.905362928881264  6.754525560594483  177.41154169014868  9.156306098230742  -133.14505258326633  18.557721538048146  120.000000
3.1328539325842697  0.000000  0.000000  0.000000  -25.454255811489144  5.629153028935622  -1.0134662869938291  58.98401823167612  10.940713568968613  6.731594277442323  178.59569470573229  9.76569986175088  -133.65423231195464  18.399970066967693  120.000000
3.1730187265917604  0.000000  0.000000  0.000000  -25.607452467784857  5.742131431337646  -0.7844034980327381  58.94532868052911  10.954836079317902  6.691224378210907  179.6880385390451  10.27365239591142  -134.18484047481326  18.237611242603332  120.000000
3.2131835205992507  0.000000  0.000000  0.000000  -25.733506921985196  5.843707191786526  -0.5670776500970537  58.89000876191897  10.946352487402658  6.635878638710472  -179.32559823439382  10.685741640943904  -134.71437308842505  18.082156390385528  120.000000
3.2533483146067415  0.000000  0.000000  0.000000  -25.83301466015775  5.932642898135422  -0.36528825240027313  58.82166426452904  10.913996119428132  6.568404262686146  -178.45927787952527  11.00708245276645  -135.22066606973775  17.93941153142759  120.000000
3.293513108614232  0.000000  0.000000  0.000000  -25.906716014701846  6.008387888893632  -0.18227303612393586  58.74370659982076  10.857060652261474  6.491302091526242  -177.7248607683594  11.241708276666843  -135.68425639767275  17.81049698462333  120.000000
3.333677902621723  0.000000  0.000000  0.000000  -25.955302700588085  6.070939093518277  -0.02055048647600234  58.6591104500213  10.775308160444519  6.406604704484276  -177.12975210607874  11.392658872639478  -136.09059886604882  17.693531724625164  120.000000
3.3738426966292137  0.000000  0.000000  0.000000  -25.97965674084293  6.1204772688253195  0.11793964242357435  58.57035754150692  10.668795684642784  6.316139799028203  -176.67837418889368  11.46213434847483  -136.42873138555228  17.585525992185566  120.000000
3.414007490636704  0.000000  0.000000  0.000000  -25.980848830326348  6.157231355634027  0.23184692422448003  58.479448205086065  10.537853665093904  6.221606759931064  -176.37312205881258  11.4516178948444  -136.6903424491309  17.483835353331425  120.000000
3.4541722846441947  0.000000  0.000000  0.000000  -25.960194196682256  6.181493473460134  0.3203272276501056  58.38787812762991  10.383114355677625  6.124537280603891  -176.2137640183994  11.36188297072333  -136.8703764904164  17.38689963098078  120.000000
3.4943370786516854  0.000000  0.000000  0.000000  -25.919321825240605  6.193585534555698  0.38299788444472155  58.29652574266288  10.20548593946954  6.026298149507027  -176.19669920074037  11.193130803425975  -136.96785749068684  17.294153138596528  120.000000
3.534501872659176  0.000000  0.000000  0.000000  -25.86016990450022  6.193875067926746  0.41980771488114177  58.20573084626633  10.006173680110344  5.9281289731845686  -176.3153223942885  10.945024234937472  -136.9855625906742  17.205411450790624  120.000000
3.574666666666667  0.000000  0.000000  0.000000  -25.78471386185291  6.182770511578125  0.4310286264090969  58.11553962516331  9.786760410554171  5.831038958396407  -176.56041089564687  10.616717006704341  -136.9296832713731  17.119953464962062  120.000000
3.614831460674157  0.000000  0.000000  0.000000  -25.694761138301786  6.160831326212927  0.4173320710627839  58.025882079386626  9.549270056787696  5.7358461943756955  -176.92153206614682  10.206855411207451  -136.80843382112045  17.035582991240975  120.000000
3.654996254681648  0.000000  0.000000  0.000000  -25.591671800823917  6.128714625707738  0.3796822505568425  57.93678578364517  9.296445822489373  5.643431815549504  -177.3880572880895  9.713506575591403  -136.63120236283274  16.947957655150336  120.000000
3.6951610486891386  0.000000  0.000000  0.000000  -25.47612736215397  6.087060874124283  0.3195050892209241  57.84829037570002  9.031554177862315  5.554916322805432  -177.94883035980584  9.134298531171101  -136.40892315337638  16.850450560192773  120.000000
3.7353258426966294  0.000000  0.000000  0.000000  -25.347797612828522  6.0364815902743745  0.23847293574145687  57.76106145797507  8.758127516116675  5.471569825661877  -178.59703258918282  8.466845119347914  -136.14912946871607  16.734757858879444  120.000000
3.7754906367041197  0.000000  0.000000  0.000000  -25.204978119437417  5.976822446519989  0.1381395837185865  57.67645263985766  8.479598550304997  5.395032738669367  -179.3337723473941  7.70949208244034  -135.8521692446882  16.591935463403733  120.000000
3.8156554307116104  0.000000  0.000000  0.000000  -25.04503013127271  5.907642814872439  0.019679288158131622  57.59559828224444  8.198938140802259  5.32756703936699  179.83260804553854  6.861827464973183  -135.51172954941177  16.413115398658956  120.000000
3.855820224719101  0.000000  0.000000  0.000000  -24.86392023366373  5.8292842677057095  -0.11643722106452074  57.51918469367393  7.919703774493823  5.2705715361547485  178.89368958411814  5.924195497074421  -135.12182010853948  16.190280259182586  120.000000
3.895985018726592  0.000000  0.000000  0.000000  -24.6558576057312  5.742996326774184  -0.27028063921551  57.44682325467235  7.647003476739469  5.223967405869999  177.84503645324511  4.897566262662518  -134.6806317485282  15.916792416554076  120.000000
3.9361498127340826  0.000000  0.000000  0.000000  -24.41362604671908  5.651412010522379  -0.44114168207651794  57.37688457901768  7.387472984296795  5.187760134313638  176.65847810814708  3.783426463034975  -134.1631143630466  15.588640588319759  120.000000
3.976314606741573  0.000000  0.000000  0.000000  -24.13063489413734  5.558395234019468  -0.6252713529651632  57.30698197753691  7.150602036478751  5.161583222440959  175.12322774971145  2.5821762818548426  -133.3647398532456  15.206232114018675  120.000000
4.016479400749064  0.000000  0.000000  0.000000  -23.80503492044235  5.469498322946191  -0.8143938904229435  57.23351636977915  6.950672202806654  5.144833593510909  171.77702976420537  1.2924618574612394  -130.83572592158853  14.775756396703642  120.000000
4.056644194756554  0.000000  0.000000  0.000000  -23.440969281124925  5.392247611043888  -0.9950480309638338  57.151098138796556  6.806805123735269  5.137691718042309  48.44104346778644  0.16701932696300645  -8.413777041329528  14.309325582168107  120.000000
4.096808988764045  0.000000  0.000000  0.000000  -23.046256104178138  5.335818051338193  -1.1494024711224138  57.05195458876074  6.741540686120234  5.141381894508343  1.6547856839733444  1.6083743584192782  37.346035792521484  13.823436428928428  120.000000
4.136973782771536  0.000000  0.000000  0.000000  -22.62976289232616  5.312276382456553  -1.258940788282151  56.92875927174739  6.7787522275455006  5.157083517874286  -0.8641930629941992  3.2240533908934226  38.715662283931856  13.338575664007111  120.000000
4.177138576779027  0.000000  0.000000  0.000000  -22.201544723765668  5.334903043188962  -1.3085460276488867  56.77946303921441  6.938510201823997  5.184223072553113  -1.8404677081578853  4.9718675612235845  38.41570626343047  12.877396301483962  120.000000
4.217303370786517  0.000000  0.000000  0.000000  -21.77362848683468  5.413048143936785  -1.2877819122207887  56.60534851142828  7.233002046009088  5.222424069364055  -2.405153478671314  6.856084812005161  37.58017558173307  12.461197288056612  120.000000
4.257468164794007  0.000000  0.000000  0.000000  -21.361328131105036  5.550855034732182  -1.1885559730878736  56.40710395659284  7.664358547210434  5.274225038930289  -2.8131257434382686  8.875948545144905  36.47344146638794  12.107010894001116  120.000000
4.297632958801498  0.000000  0.000000  0.000000  -20.984075652059445  5.7480537118013775  -1.0025223605264435  56.18501567110386  8.222780263520903  5.344160203042235  -3.1475989934830584  11.025213774221665  35.19279062920096  11.823752594112957  120.000000
4.337797752808989  0.000000  0.000000  0.000000  -20.66224919751697  5.998488295531858  -0.7224713032757025  55.93981121578982  8.889504045475222  5.436700866676018  -3.4418609626183936  13.292375663992967  33.78902423135701  11.61014142795412  120.000000
4.377962546816479  0.000000  0.000000  0.000000  -20.415399576109632  6.293347112497157  -0.34575720268190474  55.673736571358546  9.641737220020188  5.5576351546698595  -3.7061107776370577  15.661834115986013  32.29190557722866  11.455677076846937  120.000000
4.41812734082397  0.000000  0.000000  0.000000  -20.260575953423878  6.6243152987325  0.12597384171262374  55.39084618094061  10.455147328155794  5.714686982196614  -3.9381207337559747  18.115319988783117  30.720067765155665  11.343633207822933  120.000000
4.458292134831461  0.000000  0.000000  0.000000  -20.209417243412666  6.981428620315746  0.6886290018742736  55.09636795137726  11.304765007745495  5.914730095822759  -4.132757703804306  20.63345459349832  29.090201024443996  11.254854924275485  120.000000
4.4984569288389515  0.000000  0.000000  0.000000  -20.26729792215569  7.353530977351591  1.335318899133729  54.79744991683663  12.166316385055104  6.163303072740646  -4.283033617264826  23.196198956927834  27.41785065421681  11.171815109630773  120.000000
